G75*
G70*
%OFA0B0*%
%FSLAX24Y24*%
%IPPOS*%
%LPD*%
%AMOC8*
5,1,8,0,0,1.08239X$1,22.5*
%
%ADD10C,0.0100*%
%ADD11R,0.0005X0.0040*%
%ADD12R,0.0005X0.0070*%
%ADD13R,0.0005X0.0085*%
%ADD14R,0.0005X0.0100*%
%ADD15R,0.0005X0.0115*%
%ADD16R,0.0005X0.0125*%
%ADD17R,0.0005X0.0130*%
%ADD18R,0.0005X0.0140*%
%ADD19R,0.0005X0.0150*%
%ADD20R,0.0005X0.0155*%
%ADD21R,0.0005X0.0165*%
%ADD22R,0.0005X0.0170*%
%ADD23R,0.0005X0.0180*%
%ADD24R,0.0005X0.0185*%
%ADD25R,0.0005X0.0060*%
%ADD26R,0.0005X0.0190*%
%ADD27R,0.0005X0.0075*%
%ADD28R,0.0005X0.0195*%
%ADD29R,0.0005X0.0095*%
%ADD30R,0.0005X0.0200*%
%ADD31R,0.0005X0.0105*%
%ADD32R,0.0005X0.0205*%
%ADD33R,0.0005X0.0120*%
%ADD34R,0.0005X0.0210*%
%ADD35R,0.0005X0.0215*%
%ADD36R,0.0005X0.0220*%
%ADD37R,0.0005X0.0145*%
%ADD38R,0.0005X0.0225*%
%ADD39R,0.0005X0.0230*%
%ADD40R,0.0005X0.0160*%
%ADD41R,0.0005X0.0235*%
%ADD42R,0.0005X0.0240*%
%ADD43R,0.0005X0.0175*%
%ADD44R,0.0005X0.0065*%
%ADD45R,0.0005X0.0305*%
%ADD46R,0.0005X0.0415*%
%ADD47R,0.0005X0.0420*%
%ADD48R,0.0005X0.0045*%
%ADD49R,0.0005X0.0480*%
%ADD50R,0.0005X0.0485*%
%ADD51R,0.0005X0.0495*%
%ADD52R,0.0005X0.0510*%
%ADD53R,0.0005X0.0520*%
%ADD54R,0.0005X0.0530*%
%ADD55R,0.0005X0.0540*%
%ADD56R,0.0005X0.0550*%
%ADD57R,0.0005X0.0555*%
%ADD58R,0.0005X0.0020*%
%ADD59R,0.0005X0.0600*%
%ADD60R,0.0005X0.0610*%
%ADD61R,0.0005X0.0625*%
%ADD62R,0.0005X0.0730*%
%ADD63R,0.0005X0.0750*%
%ADD64R,0.0005X0.0770*%
%ADD65R,0.0005X0.0785*%
%ADD66R,0.0005X0.0810*%
%ADD67R,0.0005X0.0835*%
%ADD68R,0.0005X0.0850*%
%ADD69R,0.0005X0.0865*%
%ADD70R,0.0005X0.0880*%
%ADD71R,0.0005X0.0885*%
%ADD72R,0.0005X0.0900*%
%ADD73R,0.0005X0.0805*%
%ADD74R,0.0005X0.0800*%
%ADD75R,0.0005X0.0030*%
%ADD76R,0.0005X0.0795*%
%ADD77R,0.0005X0.0015*%
%ADD78R,0.0005X0.1020*%
%ADD79R,0.0005X0.0005*%
%ADD80R,0.0005X0.1015*%
%ADD81R,0.0005X0.1010*%
%ADD82R,0.0005X0.1025*%
%ADD83R,0.0005X0.1030*%
%ADD84R,0.0005X0.1040*%
%ADD85R,0.0005X0.1045*%
%ADD86R,0.0005X0.1055*%
%ADD87R,0.0005X0.1060*%
%ADD88R,0.0005X0.1070*%
%ADD89R,0.0005X0.1075*%
%ADD90R,0.0005X0.1085*%
%ADD91R,0.0005X0.1095*%
%ADD92R,0.0005X0.1100*%
%ADD93R,0.0005X0.1110*%
%ADD94R,0.0005X0.1120*%
%ADD95R,0.0005X0.1130*%
%ADD96R,0.0005X0.1140*%
%ADD97R,0.0005X0.1150*%
%ADD98R,0.0005X0.1165*%
%ADD99R,0.0005X0.1170*%
%ADD100R,0.0005X0.1175*%
%ADD101R,0.0005X0.0965*%
%ADD102R,0.0005X0.0960*%
%ADD103R,0.0005X0.0955*%
%ADD104R,0.0005X0.0950*%
%ADD105R,0.0005X0.0945*%
%ADD106R,0.0005X0.0935*%
%ADD107R,0.0005X0.0930*%
%ADD108R,0.0005X0.0925*%
%ADD109R,0.0005X0.0920*%
%ADD110R,0.0005X0.0910*%
%ADD111R,0.0005X0.0905*%
%ADD112R,0.0005X0.0890*%
%ADD113R,0.0005X0.0895*%
%ADD114R,0.0005X0.0915*%
%ADD115R,0.0005X0.0985*%
%ADD116R,0.0005X0.1035*%
%ADD117R,0.0005X0.1050*%
%ADD118R,0.0005X0.1065*%
%ADD119R,0.0005X0.0645*%
%ADD120R,0.0005X0.0345*%
%ADD121R,0.0005X0.0620*%
%ADD122R,0.0005X0.0335*%
%ADD123R,0.0005X0.0320*%
%ADD124R,0.0005X0.0580*%
%ADD125R,0.0005X0.0310*%
%ADD126R,0.0005X0.0565*%
%ADD127R,0.0005X0.0300*%
%ADD128R,0.0005X0.0285*%
%ADD129R,0.0005X0.0280*%
%ADD130R,0.0005X0.0265*%
%ADD131R,0.0005X0.0525*%
%ADD132R,0.0005X0.0255*%
%ADD133R,0.0005X0.0515*%
%ADD134R,0.0005X0.0505*%
%ADD135R,0.0005X0.0090*%
%ADD136R,0.0005X0.0500*%
%ADD137R,0.0005X0.0490*%
%ADD138R,0.0005X0.0470*%
%ADD139R,0.0005X0.0450*%
%ADD140R,0.0005X0.0370*%
%ADD141R,0.0005X0.0340*%
%ADD142R,0.0005X0.0330*%
%ADD143R,0.0005X0.0010*%
%ADD144R,0.0005X0.0270*%
%ADD145R,0.0005X0.0245*%
%ADD146R,0.0005X0.0260*%
%ADD147R,0.0005X0.0275*%
%ADD148R,0.0005X0.0290*%
%ADD149R,0.0005X0.0110*%
%ADD150C,0.0010*%
%ADD151C,0.0020*%
D10*
X000150Y000175D02*
X000150Y005800D01*
X007275Y005800D01*
X007275Y000175D01*
X000150Y000175D01*
D11*
X004050Y003783D03*
X003985Y004583D03*
X003010Y004328D03*
D12*
X004045Y003788D03*
D13*
X004040Y003790D03*
X003970Y004600D03*
D14*
X003790Y004218D03*
X004035Y003798D03*
D15*
X004030Y003800D03*
X003955Y004615D03*
D16*
X003945Y004625D03*
X004025Y003805D03*
X003345Y003735D03*
D17*
X004020Y003808D03*
X003940Y004628D03*
D18*
X003935Y004633D03*
X003930Y004638D03*
X003045Y004988D03*
X002790Y004538D03*
X004015Y003813D03*
D19*
X004010Y003818D03*
X003915Y004648D03*
X003910Y004653D03*
D20*
X003905Y004655D03*
X003900Y004660D03*
X004005Y003820D03*
X003350Y003735D03*
D21*
X004000Y003825D03*
X003890Y004665D03*
X003885Y004670D03*
X003880Y004670D03*
X003875Y004675D03*
D22*
X003870Y004678D03*
X003865Y004678D03*
X003860Y004683D03*
X003050Y004988D03*
X003990Y003833D03*
X003995Y003828D03*
D23*
X003985Y003838D03*
X003845Y004688D03*
X003840Y004688D03*
X003835Y004693D03*
X003830Y004693D03*
D24*
X003825Y004695D03*
X003820Y004695D03*
X003815Y004695D03*
X003980Y003840D03*
D25*
X003645Y003708D03*
X003980Y004588D03*
D26*
X003810Y004698D03*
X003805Y004698D03*
X003790Y004703D03*
X003055Y004988D03*
X003970Y003848D03*
X003975Y003843D03*
X003360Y003738D03*
D27*
X003340Y003735D03*
X003975Y004595D03*
D28*
X003800Y004700D03*
X003795Y004700D03*
X003785Y004705D03*
X003780Y004705D03*
X003775Y004705D03*
X003965Y003850D03*
D29*
X003965Y004605D03*
D30*
X003770Y004708D03*
X003765Y004708D03*
X003760Y004708D03*
X003755Y004708D03*
X002800Y004533D03*
X003955Y003858D03*
X003960Y003853D03*
D31*
X003960Y004610D03*
D32*
X003750Y004710D03*
X003745Y004710D03*
X003740Y004710D03*
X003735Y004710D03*
X003730Y004710D03*
X002970Y004635D03*
X002965Y004635D03*
X002960Y004630D03*
X002955Y004630D03*
X003945Y003865D03*
X003950Y003860D03*
D33*
X003950Y004618D03*
D34*
X003725Y004713D03*
X003720Y004713D03*
X003715Y004713D03*
X003710Y004713D03*
X003705Y004713D03*
X003700Y004713D03*
X003695Y004713D03*
X002950Y004628D03*
X002945Y004628D03*
X003940Y003868D03*
D35*
X003935Y003870D03*
X003930Y003875D03*
X002940Y004625D03*
X002935Y004620D03*
X002930Y004620D03*
X003060Y004985D03*
X003645Y004715D03*
X003650Y004715D03*
X003655Y004715D03*
X003660Y004715D03*
X003665Y004715D03*
X003670Y004715D03*
X003675Y004715D03*
X003680Y004715D03*
X003685Y004715D03*
X003690Y004715D03*
D36*
X003640Y004713D03*
X003635Y004713D03*
X002925Y004618D03*
X002920Y004613D03*
X002805Y004528D03*
X003795Y003958D03*
X003920Y003883D03*
X003925Y003878D03*
D37*
X003925Y004640D03*
X003920Y004645D03*
D38*
X003065Y004985D03*
X002915Y004610D03*
X003800Y003955D03*
X003915Y003885D03*
D39*
X003910Y003888D03*
X003905Y003893D03*
X003900Y003893D03*
X003895Y003898D03*
X003820Y003943D03*
X003815Y003948D03*
X003810Y003948D03*
X003805Y003953D03*
X002910Y004603D03*
D40*
X003895Y004663D03*
D41*
X003825Y003940D03*
X003830Y003935D03*
X003835Y003935D03*
X003840Y003930D03*
X003850Y003925D03*
X003865Y003915D03*
X003875Y003910D03*
X003880Y003905D03*
X003885Y003905D03*
X003890Y003900D03*
X002905Y004600D03*
X002810Y004525D03*
D42*
X002900Y004598D03*
X002975Y004618D03*
X003070Y004983D03*
X003845Y003928D03*
X003855Y003923D03*
X003860Y003918D03*
X003870Y003913D03*
D43*
X003355Y003735D03*
X002795Y004535D03*
X003850Y004685D03*
X003855Y004685D03*
D44*
X003795Y004215D03*
X003795Y004115D03*
X003705Y003815D03*
X002780Y004540D03*
D45*
X002985Y004585D03*
X003790Y004005D03*
D46*
X003785Y004065D03*
X003765Y004085D03*
D47*
X003770Y004083D03*
X003775Y004078D03*
X003780Y004073D03*
D48*
X003765Y004325D03*
X003640Y003695D03*
D49*
X003760Y004123D03*
X003025Y004503D03*
D50*
X003755Y004130D03*
D51*
X003750Y004130D03*
D52*
X003745Y004133D03*
D53*
X003740Y004133D03*
X003055Y004478D03*
X003050Y004483D03*
D54*
X003080Y004453D03*
X003085Y004448D03*
X003735Y004133D03*
D55*
X003730Y004133D03*
X003090Y004443D03*
D56*
X003725Y004133D03*
D57*
X003720Y004135D03*
D58*
X003720Y004428D03*
D59*
X003715Y004158D03*
X003105Y004433D03*
D60*
X003710Y004163D03*
D61*
X003705Y004165D03*
D62*
X003700Y004118D03*
D63*
X003695Y004113D03*
D64*
X003690Y004108D03*
D65*
X003685Y004105D03*
D66*
X003680Y004113D03*
D67*
X003675Y004115D03*
D68*
X003670Y004118D03*
D69*
X003665Y004120D03*
D70*
X003660Y004123D03*
D71*
X003655Y004125D03*
X003295Y004345D03*
D72*
X003305Y004343D03*
X003650Y004128D03*
D73*
X003645Y004180D03*
D74*
X003640Y004193D03*
D75*
X003635Y003688D03*
D76*
X003635Y004200D03*
D77*
X003630Y003680D03*
D78*
X003550Y004293D03*
X003545Y004293D03*
X003540Y004293D03*
X003580Y004303D03*
X003585Y004303D03*
X003590Y004308D03*
X003620Y004313D03*
X003625Y004313D03*
X003630Y004313D03*
D79*
X003625Y003675D03*
D80*
X003525Y004285D03*
X003530Y004290D03*
X003535Y004290D03*
X003595Y004310D03*
X003605Y004310D03*
X003610Y004310D03*
X003615Y004310D03*
D81*
X003600Y004313D03*
X003270Y004423D03*
D82*
X003265Y004435D03*
X003120Y004620D03*
X003555Y004295D03*
X003560Y004295D03*
X003565Y004295D03*
X003570Y004300D03*
X003575Y004300D03*
D83*
X003520Y004278D03*
D84*
X003515Y004268D03*
X003125Y004618D03*
D85*
X003165Y004565D03*
X003255Y004455D03*
X003510Y004260D03*
D86*
X003505Y004255D03*
X003500Y004250D03*
X003245Y004475D03*
X003185Y004550D03*
X003180Y004555D03*
X003175Y004560D03*
X003160Y004575D03*
X003135Y004610D03*
D87*
X003190Y004548D03*
X003195Y004543D03*
X003200Y004538D03*
X003205Y004538D03*
X003210Y004528D03*
X003230Y004503D03*
X003235Y004498D03*
X003240Y004488D03*
X003495Y004243D03*
D88*
X003490Y004238D03*
X003485Y004233D03*
X003480Y004228D03*
X003475Y004223D03*
X003150Y004593D03*
D89*
X003470Y004220D03*
D90*
X003465Y004220D03*
D91*
X003460Y004220D03*
D92*
X003455Y004218D03*
D93*
X003450Y004218D03*
D94*
X003445Y004218D03*
X003440Y004218D03*
D95*
X003435Y004218D03*
D96*
X003430Y004218D03*
D97*
X003425Y004223D03*
D98*
X003420Y004225D03*
X003415Y004225D03*
D99*
X003410Y004228D03*
X003365Y004228D03*
D100*
X003370Y004225D03*
X003375Y004225D03*
X003380Y004225D03*
X003385Y004225D03*
X003390Y004225D03*
X003395Y004225D03*
X003400Y004225D03*
X003405Y004225D03*
D101*
X003360Y004325D03*
X003280Y004395D03*
D102*
X003355Y004328D03*
D103*
X003350Y004325D03*
D104*
X003345Y004328D03*
D105*
X003340Y004330D03*
D106*
X003335Y004330D03*
D107*
X003330Y004333D03*
D108*
X003325Y004335D03*
D109*
X003320Y004338D03*
D110*
X003315Y004338D03*
D111*
X003310Y004340D03*
D112*
X003300Y004343D03*
D113*
X003290Y004350D03*
D114*
X003285Y004365D03*
D115*
X003275Y004410D03*
D116*
X003260Y004445D03*
D117*
X003250Y004468D03*
X003170Y004563D03*
X003130Y004613D03*
D118*
X003140Y004605D03*
X003145Y004600D03*
X003155Y004585D03*
X003215Y004520D03*
X003220Y004515D03*
X003225Y004510D03*
D119*
X003115Y004435D03*
D120*
X003005Y004565D03*
X003115Y004960D03*
D121*
X003110Y004433D03*
D122*
X003110Y004965D03*
D123*
X003105Y004968D03*
X002990Y004578D03*
D124*
X003100Y004438D03*
D125*
X003100Y004973D03*
D126*
X003095Y004440D03*
D127*
X003095Y004973D03*
D128*
X003090Y004975D03*
X002865Y004555D03*
X002860Y004550D03*
X002855Y004545D03*
X002835Y004530D03*
D129*
X002830Y004528D03*
X003085Y004978D03*
D130*
X003080Y004980D03*
X002880Y004575D03*
X002820Y004525D03*
D131*
X003060Y004470D03*
X003065Y004465D03*
X003070Y004460D03*
X003075Y004455D03*
D132*
X002890Y004585D03*
X002815Y004525D03*
X003075Y004980D03*
D133*
X003045Y004485D03*
D134*
X003040Y004490D03*
D135*
X003040Y004988D03*
D136*
X003035Y004493D03*
D137*
X003030Y004498D03*
D138*
X003020Y004508D03*
D139*
X003015Y004513D03*
D140*
X003010Y004553D03*
D141*
X003000Y004568D03*
D142*
X002995Y004573D03*
D143*
X002980Y004458D03*
D144*
X002875Y004568D03*
X002980Y004603D03*
D145*
X002895Y004590D03*
D146*
X002885Y004578D03*
D147*
X002870Y004560D03*
X002825Y004525D03*
D148*
X002840Y004533D03*
X002845Y004538D03*
X002850Y004543D03*
D149*
X002785Y004538D03*
D150*
X003451Y003195D02*
X003486Y003195D01*
X003522Y003160D01*
X003522Y003125D01*
X003469Y003072D01*
X003504Y003107D02*
X003575Y003107D01*
X003504Y003036D02*
X003398Y003142D01*
X003451Y003195D01*
X003382Y003091D02*
X003347Y003091D01*
X003312Y003056D01*
X003312Y003021D01*
X003382Y002950D01*
X003418Y002950D01*
X003453Y002985D01*
X003453Y003021D01*
X003418Y003056D01*
X003382Y003021D01*
X003398Y002517D02*
X003504Y002411D01*
X003575Y002482D01*
X003453Y002396D02*
X003453Y002360D01*
X003400Y002307D01*
X003294Y002413D01*
X003347Y002466D01*
X003382Y002466D01*
X003400Y002449D01*
X003400Y002413D01*
X003347Y002360D01*
X003400Y002413D02*
X003435Y002413D01*
X003453Y002396D01*
X004794Y002538D02*
X004847Y002591D01*
X004882Y002591D01*
X004918Y002556D01*
X004918Y002521D01*
X004865Y002467D01*
X004900Y002432D02*
X004794Y002538D01*
X004900Y002503D02*
X004971Y002503D01*
X005004Y002536D02*
X005057Y002589D01*
X005057Y002625D01*
X004986Y002695D01*
X004951Y002695D01*
X004898Y002642D01*
X005004Y002536D01*
X005166Y003205D02*
X005211Y003205D01*
X005211Y003295D01*
X005166Y003295D01*
X005151Y003280D01*
X005151Y003220D01*
X005166Y003205D01*
X005243Y003205D02*
X005243Y003295D01*
X005303Y003205D01*
X005303Y003295D01*
X005335Y003280D02*
X005335Y003250D01*
X005365Y003250D01*
X005395Y003220D02*
X005395Y003280D01*
X005380Y003295D01*
X005350Y003295D01*
X005335Y003280D01*
X005335Y003220D02*
X005350Y003205D01*
X005380Y003205D01*
X005395Y003220D01*
X005879Y003235D02*
X005909Y003205D01*
X005939Y003235D01*
X005939Y003295D01*
X005971Y003295D02*
X006016Y003295D01*
X006031Y003280D01*
X006031Y003220D01*
X006016Y003205D01*
X005971Y003205D01*
X005971Y003295D01*
X006063Y003295D02*
X006108Y003295D01*
X006123Y003280D01*
X006123Y003220D01*
X006108Y003205D01*
X006063Y003205D01*
X006063Y003295D01*
X005879Y003295D02*
X005879Y003235D01*
X005894Y003705D02*
X005924Y003705D01*
X005939Y003720D01*
X005939Y003750D01*
X005909Y003750D01*
X005939Y003780D02*
X005924Y003795D01*
X005894Y003795D01*
X005879Y003780D01*
X005879Y003720D01*
X005894Y003705D01*
X005971Y003705D02*
X005971Y003795D01*
X006016Y003795D01*
X006031Y003780D01*
X006031Y003750D01*
X006016Y003735D01*
X005971Y003735D01*
X006063Y003720D02*
X006078Y003705D01*
X006108Y003705D01*
X006123Y003720D01*
X006123Y003750D01*
X006108Y003765D01*
X006093Y003765D01*
X006063Y003750D01*
X006063Y003795D01*
X006123Y003795D01*
X006108Y004205D02*
X006108Y004295D01*
X006063Y004250D01*
X006123Y004250D01*
X006031Y004250D02*
X006016Y004235D01*
X005971Y004235D01*
X005971Y004205D02*
X005971Y004295D01*
X006016Y004295D01*
X006031Y004280D01*
X006031Y004250D01*
X005939Y004250D02*
X005939Y004220D01*
X005924Y004205D01*
X005894Y004205D01*
X005879Y004220D01*
X005879Y004280D01*
X005894Y004295D01*
X005924Y004295D01*
X005939Y004280D01*
X005939Y004250D02*
X005909Y004250D01*
X005395Y004220D02*
X005395Y004280D01*
X005380Y004295D01*
X005350Y004295D01*
X005335Y004280D01*
X005335Y004250D01*
X005365Y004250D01*
X005395Y004220D02*
X005380Y004205D01*
X005350Y004205D01*
X005335Y004220D01*
X005303Y004205D02*
X005258Y004205D01*
X005243Y004220D01*
X005243Y004250D01*
X005258Y004265D01*
X005303Y004265D01*
X005303Y004295D02*
X005303Y004205D01*
X005211Y004235D02*
X005181Y004205D01*
X005181Y004295D01*
X005211Y004295D02*
X005151Y004295D01*
X005166Y004705D02*
X005196Y004705D01*
X005211Y004720D01*
X005243Y004720D02*
X005243Y004750D01*
X005258Y004765D01*
X005303Y004765D01*
X005303Y004795D02*
X005303Y004705D01*
X005258Y004705D01*
X005243Y004720D01*
X005166Y004705D02*
X005151Y004720D01*
X005151Y004735D01*
X005211Y004795D01*
X005151Y004795D01*
X005335Y004780D02*
X005335Y004750D01*
X005365Y004750D01*
X005395Y004720D02*
X005395Y004780D01*
X005380Y004795D01*
X005350Y004795D01*
X005335Y004780D01*
X005335Y004720D02*
X005350Y004705D01*
X005380Y004705D01*
X005395Y004720D01*
X005879Y004735D02*
X005909Y004705D01*
X005939Y004735D01*
X005939Y004795D01*
X005971Y004795D02*
X005971Y004705D01*
X005971Y004735D02*
X006016Y004735D01*
X006031Y004750D01*
X006031Y004780D01*
X006016Y004795D01*
X005971Y004795D01*
X006063Y004795D02*
X006063Y004705D01*
X006063Y004735D02*
X006108Y004735D01*
X006123Y004750D01*
X006123Y004780D01*
X006108Y004795D01*
X006063Y004795D01*
X005879Y004795D02*
X005879Y004735D01*
X006560Y005467D02*
X006507Y005521D01*
X006507Y005591D01*
X006490Y005609D01*
X006523Y005642D02*
X006629Y005536D01*
X006700Y005607D01*
X006611Y005625D02*
X006576Y005589D01*
X006523Y005642D02*
X006594Y005713D01*
X006419Y005538D02*
X006437Y005521D01*
X006507Y005521D01*
X005380Y003795D02*
X005350Y003795D01*
X005335Y003780D01*
X005335Y003750D01*
X005365Y003750D01*
X005395Y003780D02*
X005380Y003795D01*
X005395Y003780D02*
X005395Y003720D01*
X005380Y003705D01*
X005350Y003705D01*
X005335Y003720D01*
X005303Y003705D02*
X005258Y003705D01*
X005243Y003720D01*
X005243Y003750D01*
X005258Y003765D01*
X005303Y003765D01*
X005303Y003795D02*
X005303Y003705D01*
X005211Y003720D02*
X005211Y003780D01*
X005151Y003720D01*
X005151Y003780D01*
X005166Y003795D01*
X005196Y003795D01*
X005211Y003780D01*
X005211Y003720D02*
X005196Y003705D01*
X005166Y003705D01*
X005151Y003720D01*
X003469Y000588D02*
X003469Y000447D01*
X003469Y000482D02*
X003575Y000482D01*
X003504Y000411D02*
X003398Y000517D01*
X003382Y000466D02*
X003400Y000449D01*
X003400Y000413D01*
X003347Y000360D01*
X003400Y000307D02*
X003453Y000360D01*
X003453Y000396D01*
X003435Y000413D01*
X003400Y000413D01*
X003382Y000466D02*
X003347Y000466D01*
X003294Y000413D01*
X003400Y000307D01*
D151*
X002478Y000710D02*
X002331Y000710D01*
X002478Y000857D01*
X002478Y000893D01*
X002441Y000930D01*
X002368Y000930D01*
X002331Y000893D01*
X002257Y000893D02*
X002257Y000820D01*
X002220Y000783D01*
X002110Y000783D01*
X002183Y000783D02*
X002257Y000710D01*
X002110Y000710D02*
X002110Y000930D01*
X002220Y000930D01*
X002257Y000893D01*
X003395Y001260D02*
X003395Y001370D01*
X003432Y001407D01*
X003505Y001407D01*
X003542Y001370D01*
X003542Y001260D01*
X003615Y001260D02*
X003395Y001260D01*
X003542Y001333D02*
X003615Y001407D01*
X003615Y001481D02*
X003615Y001628D01*
X003615Y001554D02*
X003395Y001554D01*
X003468Y001481D01*
X002478Y001997D02*
X002441Y001960D01*
X002368Y001960D01*
X002331Y001997D01*
X002257Y001960D02*
X002183Y002033D01*
X002220Y002033D02*
X002110Y002033D01*
X002220Y002033D02*
X002257Y002070D01*
X002257Y002143D01*
X002220Y002180D01*
X002110Y002180D01*
X002110Y001960D01*
X002331Y002143D02*
X002368Y002180D01*
X002441Y002180D01*
X002478Y002143D01*
X002478Y002107D01*
X002441Y002070D01*
X002478Y002033D01*
X002478Y001997D01*
X002441Y002070D02*
X002404Y002070D01*
X002441Y003210D02*
X002441Y003430D01*
X002331Y003320D01*
X002478Y003320D01*
X002257Y003320D02*
X002220Y003283D01*
X002110Y003283D01*
X002183Y003283D02*
X002257Y003210D01*
X002257Y003320D02*
X002257Y003393D01*
X002220Y003430D01*
X002110Y003430D01*
X002110Y003210D01*
X002110Y004460D02*
X002110Y004680D01*
X002220Y004680D01*
X002257Y004643D01*
X002257Y004570D01*
X002220Y004533D01*
X002110Y004533D01*
X002183Y004533D02*
X002257Y004460D01*
X002331Y004497D02*
X002368Y004460D01*
X002441Y004460D01*
X002478Y004497D01*
X002478Y004570D01*
X002441Y004607D01*
X002404Y004607D01*
X002331Y004570D01*
X002331Y004680D01*
X002478Y004680D01*
X004490Y002703D02*
X004490Y002556D01*
X004453Y002482D02*
X004490Y002445D01*
X004490Y002372D01*
X004453Y002335D01*
X004307Y002335D01*
X004270Y002372D01*
X004270Y002445D01*
X004307Y002482D01*
X004343Y002556D02*
X004270Y002629D01*
X004490Y002629D01*
X004990Y000703D02*
X004990Y000556D01*
X004990Y000629D02*
X004770Y000629D01*
X004843Y000556D01*
X004807Y000482D02*
X004770Y000445D01*
X004770Y000335D01*
X004990Y000335D01*
X004990Y000445D01*
X004953Y000482D01*
X004807Y000482D01*
X005870Y005060D02*
X005870Y005170D01*
X005907Y005207D01*
X005980Y005207D01*
X006017Y005170D01*
X006017Y005060D01*
X006090Y005060D02*
X005870Y005060D01*
X005870Y005281D02*
X005870Y005354D01*
X005870Y005318D02*
X006090Y005318D01*
X006090Y005354D02*
X006090Y005281D01*
X006053Y005428D02*
X005907Y005428D01*
X005870Y005465D01*
X005870Y005538D01*
X005907Y005575D01*
X006053Y005575D02*
X006090Y005538D01*
X006090Y005465D01*
X006053Y005428D01*
M02*
