G75*
G70*
%OFA0B0*%
%FSLAX24Y24*%
%IPPOS*%
%LPD*%
%AMOC8*
5,1,8,0,0,1.08239X$1,22.5*
%
%ADD10R,0.0866X0.0236*%
%ADD11R,0.0591X0.0512*%
%ADD12R,0.0512X0.0591*%
%ADD13C,0.0160*%
%ADD14OC8,0.0475*%
%ADD15C,0.0500*%
%ADD16C,0.0240*%
%ADD17C,0.0400*%
D10*
X004626Y003300D03*
X004626Y003800D03*
X004626Y004300D03*
X004626Y004800D03*
X006674Y004800D03*
X006674Y004300D03*
X006674Y003800D03*
X006674Y003300D03*
D11*
X004150Y001760D03*
X004150Y001090D03*
D12*
X004940Y001175D03*
X005610Y001175D03*
X005610Y001925D03*
X004940Y001925D03*
X002485Y001425D03*
X001815Y001425D03*
X001815Y002675D03*
X002485Y002675D03*
X002485Y003925D03*
X001815Y003925D03*
X001815Y005175D03*
X002485Y005175D03*
D13*
X000275Y005675D02*
X000275Y000300D01*
X007150Y000300D01*
X007150Y002982D01*
X006843Y002982D01*
X006839Y002980D01*
X006158Y002980D01*
X005962Y002785D01*
X005962Y002494D01*
X005869Y002400D01*
X005889Y002400D01*
X005935Y002388D01*
X005976Y002364D01*
X006010Y002331D01*
X006033Y002290D01*
X006046Y002244D01*
X006046Y001973D01*
X005658Y001973D01*
X005658Y001877D01*
X005997Y001877D01*
X006019Y001930D01*
X006145Y002056D01*
X006310Y002125D01*
X006740Y002125D01*
X006905Y002056D01*
X007031Y001930D01*
X007100Y001765D01*
X007100Y001585D01*
X007031Y001420D01*
X006905Y001294D01*
X006770Y001237D01*
X006905Y001181D01*
X007031Y001055D01*
X007100Y000890D01*
X007100Y000710D01*
X007031Y000545D01*
X006905Y000419D01*
X006740Y000350D01*
X006185Y000350D01*
X006077Y000395D01*
X004219Y000395D01*
X004116Y000438D01*
X004038Y000516D01*
X003920Y000634D01*
X003772Y000634D01*
X003655Y000752D01*
X003655Y002098D01*
X003772Y002216D01*
X003920Y002216D01*
X004538Y002834D01*
X004616Y002912D01*
X004719Y002955D01*
X004784Y002955D01*
X004831Y003002D01*
X004626Y003002D01*
X004626Y003300D01*
X004013Y003300D01*
X004626Y003300D01*
X004626Y003300D01*
X004626Y003300D01*
X004626Y003002D01*
X004170Y003002D01*
X004124Y003014D01*
X004083Y003038D01*
X004049Y003071D01*
X004026Y003112D01*
X004013Y003158D01*
X004013Y003300D01*
X004013Y003336D01*
X003970Y003292D01*
X003970Y003111D01*
X003921Y002994D01*
X003470Y002542D01*
X003470Y002349D01*
X003587Y002231D01*
X003587Y001869D01*
X003470Y001751D01*
X003470Y001611D01*
X003421Y001494D01*
X003171Y001244D01*
X003081Y001154D01*
X002964Y001105D01*
X002941Y001105D01*
X002941Y001047D01*
X002823Y000930D01*
X001477Y000930D01*
X001381Y001025D01*
X000695Y001025D01*
X000548Y001086D01*
X000436Y001198D01*
X000375Y001345D01*
X000375Y001505D01*
X000436Y001652D01*
X000548Y001764D01*
X000695Y001825D01*
X001381Y001825D01*
X001477Y001920D01*
X002713Y001920D01*
X002713Y002180D01*
X001477Y002180D01*
X001381Y002275D01*
X000695Y002275D01*
X000548Y002336D01*
X000436Y002448D01*
X000375Y002595D01*
X000375Y002755D01*
X000436Y002902D01*
X000548Y003014D01*
X000695Y003075D01*
X001381Y003075D01*
X001477Y003170D01*
X002443Y003170D01*
X002702Y003430D01*
X001477Y003430D01*
X001381Y003525D01*
X000695Y003525D01*
X000548Y003586D01*
X000436Y003698D01*
X000375Y003845D01*
X000375Y004005D01*
X000436Y004152D01*
X000548Y004264D01*
X000695Y004325D01*
X001381Y004325D01*
X001477Y004420D01*
X002823Y004420D01*
X002883Y004361D01*
X003502Y004980D01*
X003158Y004980D01*
X003081Y004904D01*
X002964Y004855D01*
X002941Y004855D01*
X002941Y004797D01*
X002823Y004680D01*
X001477Y004680D01*
X001381Y004775D01*
X000695Y004775D01*
X000548Y004836D01*
X000436Y004948D01*
X000375Y005095D01*
X000375Y005255D01*
X000436Y005402D01*
X000548Y005514D01*
X000695Y005575D01*
X001381Y005575D01*
X001477Y005670D01*
X002823Y005670D01*
X002899Y005594D01*
X002961Y005620D01*
X005339Y005620D01*
X005456Y005571D01*
X005831Y005196D01*
X005921Y005106D01*
X005970Y004989D01*
X005970Y004683D01*
X006033Y004620D01*
X006041Y004620D01*
X006041Y005001D01*
X006158Y005118D01*
X006463Y005118D01*
X006463Y005119D01*
X006463Y005481D01*
X006656Y005675D01*
X000275Y005675D01*
X000275Y005564D02*
X000669Y005564D01*
X000440Y005406D02*
X000275Y005406D01*
X000275Y005247D02*
X000375Y005247D01*
X000378Y005089D02*
X000275Y005089D01*
X000275Y004930D02*
X000454Y004930D01*
X000275Y004772D02*
X001385Y004772D01*
X000625Y004296D02*
X000275Y004296D01*
X000275Y004455D02*
X002977Y004455D01*
X003135Y004613D02*
X000275Y004613D01*
X000275Y004138D02*
X000430Y004138D01*
X000375Y003979D02*
X000275Y003979D01*
X000275Y003821D02*
X000385Y003821D01*
X000472Y003662D02*
X000275Y003662D01*
X000275Y003504D02*
X001403Y003504D01*
X000582Y003028D02*
X000275Y003028D01*
X000275Y002870D02*
X000423Y002870D01*
X000375Y002711D02*
X000275Y002711D01*
X000275Y002553D02*
X000393Y002553D01*
X000490Y002394D02*
X000275Y002394D01*
X000275Y002236D02*
X001421Y002236D01*
X001475Y001919D02*
X000275Y001919D01*
X000275Y002077D02*
X002713Y002077D01*
X003470Y002394D02*
X004098Y002394D01*
X004257Y002553D02*
X003480Y002553D01*
X003639Y002711D02*
X004415Y002711D01*
X004574Y002870D02*
X003797Y002870D01*
X003935Y003028D02*
X004100Y003028D01*
X004013Y003187D02*
X003970Y003187D01*
X004626Y003187D02*
X004626Y003187D01*
X004626Y003028D02*
X004626Y003028D01*
X004775Y002675D02*
X004900Y002675D01*
X006025Y003800D01*
X006525Y003800D01*
X006047Y002870D02*
X007150Y002870D01*
X007150Y002711D02*
X005962Y002711D01*
X005962Y002553D02*
X007150Y002553D01*
X007150Y002394D02*
X005913Y002394D01*
X006046Y002236D02*
X007150Y002236D01*
X007150Y002077D02*
X006855Y002077D01*
X007036Y001919D02*
X007150Y001919D01*
X007150Y001760D02*
X007100Y001760D01*
X007100Y001602D02*
X007150Y001602D01*
X007150Y001443D02*
X007041Y001443D01*
X007150Y001285D02*
X006883Y001285D01*
X006960Y001126D02*
X007150Y001126D01*
X007150Y000968D02*
X007068Y000968D01*
X007100Y000809D02*
X007150Y000809D01*
X007150Y000651D02*
X007075Y000651D01*
X007150Y000492D02*
X006978Y000492D01*
X007150Y000334D02*
X000275Y000334D01*
X000275Y000492D02*
X004062Y000492D01*
X004275Y000675D02*
X006150Y000675D01*
X006275Y000800D01*
X006014Y001919D02*
X005658Y001919D01*
X006046Y002077D02*
X006195Y002077D01*
X004775Y002675D02*
X004150Y002050D01*
X004150Y001800D01*
X003655Y001760D02*
X003479Y001760D01*
X003466Y001602D02*
X003655Y001602D01*
X003655Y001443D02*
X003371Y001443D01*
X003212Y001285D02*
X003655Y001285D01*
X003655Y001126D02*
X003014Y001126D01*
X002861Y000968D02*
X003655Y000968D01*
X003655Y000809D02*
X000275Y000809D01*
X000275Y000651D02*
X003756Y000651D01*
X004150Y000800D02*
X004275Y000675D01*
X004150Y000800D02*
X004150Y001050D01*
X003655Y001919D02*
X003587Y001919D01*
X003587Y002077D02*
X003655Y002077D01*
X003583Y002236D02*
X003940Y002236D01*
X002617Y003345D02*
X000275Y003345D01*
X000275Y003187D02*
X002459Y003187D01*
X000544Y001760D02*
X000275Y001760D01*
X000275Y001602D02*
X000415Y001602D01*
X000375Y001443D02*
X000275Y001443D01*
X000275Y001285D02*
X000400Y001285D01*
X000508Y001126D02*
X000275Y001126D01*
X000275Y000968D02*
X001439Y000968D01*
X002915Y004772D02*
X003294Y004772D01*
X003452Y004930D02*
X003108Y004930D01*
X005464Y005564D02*
X006545Y005564D01*
X006463Y005406D02*
X005622Y005406D01*
X005781Y005247D02*
X006463Y005247D01*
X006128Y005089D02*
X005929Y005089D01*
X005970Y004930D02*
X006041Y004930D01*
X006041Y004772D02*
X005970Y004772D01*
D14*
X006900Y005300D03*
X005525Y002675D03*
X003150Y002050D03*
X003150Y000675D03*
X003150Y003425D03*
D15*
X006400Y001675D02*
X006650Y001675D01*
X006650Y000800D02*
X006275Y000800D01*
D16*
X005900Y001175D02*
X005650Y001175D01*
X005900Y001175D02*
X006400Y001675D01*
X005525Y002675D02*
X005400Y002675D01*
X006025Y003300D01*
X006775Y003300D01*
X006775Y004300D02*
X005900Y004300D01*
X005650Y004550D01*
X005650Y004925D01*
X005275Y005300D01*
X003025Y005300D01*
X002900Y005175D01*
X002525Y005175D01*
X003775Y004800D02*
X002900Y003925D01*
X002525Y003925D01*
X003150Y003550D02*
X003150Y003425D01*
X002525Y002800D01*
X003150Y002675D02*
X003150Y002050D01*
X003150Y001675D01*
X002900Y001425D01*
X002525Y001425D01*
X003150Y002675D02*
X003650Y003175D01*
X003650Y003425D01*
X004025Y003800D01*
X004775Y003800D01*
X004775Y004300D02*
X003900Y004300D01*
X003150Y003550D01*
X003775Y004800D02*
X004400Y004800D01*
X006900Y004800D02*
X006900Y005300D01*
X005400Y002675D02*
X004900Y002175D01*
X004900Y001175D01*
D17*
X001775Y001425D02*
X001150Y001425D01*
X000775Y001425D01*
X000775Y002675D02*
X001150Y002675D01*
X001775Y002675D01*
X001775Y003925D02*
X001150Y003925D01*
X000775Y003925D01*
X000775Y005175D02*
X001150Y005175D01*
X001650Y005175D01*
M02*
